<svg width="800" height="400" xmlns="http://www.w3.org/2000/svg">
      <rect width="100%" height="100%" fill="#f4f4f4" />
      <text x="400" y="40" font-family="monospace" font-size="24" font-weight="bold" text-anchor="middle">Digital Clock Verilog Architecture</text>

      <rect x="100" y="150" width="100" height="100" fill="#e2e8f0" stroke="#475569" stroke-width="2"/>
      <text x="150" y="200" font-family="monospace" font-size="14" text-anchor="middle">Clk Divider</text>

      <rect x="250" y="150" width="100" height="100" fill="#cbd5e1" stroke="#475569" stroke-width="2"/>
      <text x="300" y="200" font-family="monospace" font-size="14" text-anchor="middle">Seconds</text>

      <rect x="400" y="150" width="100" height="100" fill="#94a3b8" stroke="#475569" stroke-width="2"/>
      <text x="450" y="200" font-family="monospace" font-size="14" text-anchor="middle">Minutes</text>

      <rect x="550" y="150" width="100" height="100" fill="#64748b" stroke="#475569" stroke-width="2"/>
      <text x="600" y="200" font-family="monospace" font-size="14" fill="white" text-anchor="middle">Hours</text>

      <path d="M 200 200 L 250 200" stroke="#000" stroke-width="2"/>
      <path d="M 350 200 L 400 200" stroke="#000" stroke-width="2"/>
      <path d="M 500 200 L 550 200" stroke="#000" stroke-width="2"/>

      <rect x="250" y="280" width="400" height="60" fill="#bbf7d0" stroke="#16a34a" stroke-width="2"/>
      <text x="450" y="315" font-family="monospace" font-size="14" text-anchor="middle">7-Segment Display Decoder</text>

      <path d="M 300 250 L 300 280" stroke="#000" stroke-width="2" stroke-dasharray="4"/>
      <path d="M 450 250 L 450 280" stroke="#000" stroke-width="2" stroke-dasharray="4"/>
      <path d="M 600 250 L 600 280" stroke="#000" stroke-width="2" stroke-dasharray="4"/>
    </svg>