<svg width="800" height="400" xmlns="http://www.w3.org/2000/svg">
      <rect width="100%" height="100%" fill="#f4f4f4" />
      <text x="400" y="40" font-family="monospace" font-size="24" font-weight="bold" text-anchor="middle">FIR Filter Block Diagram</text>

      <path d="M 100 120 L 200 120" stroke="#000" stroke-width="2"/>
      <rect x="200" y="100" width="60" height="40" fill="#fde047" stroke="#854d0e" stroke-width="2" />
      <text x="230" y="125" font-family="monospace" font-size="16" text-anchor="middle">Z⁻¹</text>

      <path d="M 260 120 L 360 120" stroke="#000" stroke-width="2"/>
      <rect x="360" y="100" width="60" height="40" fill="#fde047" stroke="#854d0e" stroke-width="2" />
      <text x="390" y="125" font-family="monospace" font-size="16" text-anchor="middle">Z⁻¹</text>

      <path d="M 420 120 L 520 120" stroke="#000" stroke-width="2"/>
      <rect x="520" y="100" width="60" height="40" fill="#fde047" stroke="#854d0e" stroke-width="2" />
      <text x="550" y="125" font-family="monospace" font-size="16" text-anchor="middle">Z⁻¹</text>

      <circle cx="150" cy="200" r="20" fill="#fed7aa" stroke="#c2410c" stroke-width="2" />
      <text x="150" y="205" font-family="monospace" font-size="18" text-anchor="middle">X</text>
      
      <circle cx="310" cy="200" r="20" fill="#fed7aa" stroke="#c2410c" stroke-width="2" />
      <text x="310" y="205" font-family="monospace" font-size="18" text-anchor="middle">X</text>

      <circle cx="470" cy="200" r="20" fill="#fed7aa" stroke="#c2410c" stroke-width="2" />
      <text x="470" y="205" font-family="monospace" font-size="18" text-anchor="middle">X</text>

      <!-- Adders -->
      <circle cx="310" cy="280" r="20" fill="#bbf7d0" stroke="#15803d" stroke-width="2" />
      <text x="310" y="285" font-family="monospace" font-size="18" text-anchor="middle">+</text>

      <circle cx="470" cy="280" r="20" fill="#bbf7d0" stroke="#15803d" stroke-width="2" />
      <text x="470" y="285" font-family="monospace" font-size="18" text-anchor="middle">+</text>

      <path d="M 150 120 L 150 180" stroke="#000" stroke-width="2"/>
      <path d="M 310 120 L 310 180" stroke="#000" stroke-width="2"/>
      <path d="M 470 120 L 470 180" stroke="#000" stroke-width="2"/>

      <path d="M 150 220 L 150 280 L 290 280" stroke="#000" stroke-width="2"/>
      <path d="M 310 220 L 310 260" stroke="#000" stroke-width="2"/>
      <path d="M 330 280 L 450 280" stroke="#000" stroke-width="2"/>
      <path d="M 470 220 L 470 260" stroke="#000" stroke-width="2"/>
      <path d="M 490 280 L 600 280" stroke="#000" stroke-width="2"/>
      <text x="630" y="285" font-family="monospace" font-size="18" text-anchor="middle">Output</text>
    </svg>