<svg width="800" height="400" xmlns="http://www.w3.org/2000/svg">
      <rect width="100%" height="100%" fill="#f4f4f4" />
      <text x="400" y="40" font-family="monospace" font-size="24" font-weight="bold" text-anchor="middle">Memory Controller Architecture</text>
      
      <rect x="150" y="150" width="120" height="100" fill="#fed7aa" stroke="#9a3412" stroke-width="2"/>
      <text x="210" y="205" font-family="monospace" font-size="16" text-anchor="middle">CPU/Bus</text>

      <rect x="350" y="100" width="140" height="200" fill="#e2e8f0" stroke="#334155" stroke-width="2"/>
      <text x="420" y="140" font-family="monospace" font-size="14" text-anchor="middle">Memory Controller</text>

      <rect x="370" y="160" width="100" height="40" fill="#cbd5e1" stroke="#334155"/>
      <text x="420" y="185" font-family="monospace" font-size="12" text-anchor="middle">Arbiter</text>

      <rect x="370" y="220" width="100" height="40" fill="#cbd5e1" stroke="#334155"/>
      <text x="420" y="245" font-family="monospace" font-size="12" text-anchor="middle">Refresh Logic</text>

      <rect x="580" y="120" width="120" height="160" fill="#d8b4fe" stroke="#6b21a8" stroke-width="2"/>
      <text x="640" y="205" font-family="monospace" font-size="16" text-anchor="middle">SDRAM / DDR</text>

      <path d="M 270 170 L 350 170" stroke="#000" stroke-width="2"/>
      <path d="M 270 200 L 350 200" stroke="#000" stroke-width="2"/>
      <path d="M 270 230 L 350 230" stroke="#000" stroke-width="2"/>

      <path d="M 490 150 L 580 150" stroke="#b91c1c" stroke-width="2"/>
      <text x="535" y="140" font-family="monospace" font-size="12" text-anchor="middle">Address</text>
      
      <path d="M 490 200 L 580 200" stroke="#1d4ed8" stroke-width="2"/>
      <text x="535" y="190" font-family="monospace" font-size="12" text-anchor="middle">Data</text>

      <path d="M 490 250 L 580 250" stroke="#15803d" stroke-width="2"/>
      <text x="535" y="240" font-family="monospace" font-size="12" text-anchor="middle">Control</text>
    </svg>