<svg width="800" height="400" xmlns="http://www.w3.org/2000/svg">
      <rect width="100%" height="100%" fill="#f4f4f4" />
      <text x="400" y="40" font-family="monospace" font-size="24" font-weight="bold" text-anchor="middle">RISC Processor Architecture</text>
      
      <rect x="100" y="100" width="120" height="80" fill="#bfdbfe" stroke="#1d4ed8" stroke-width="2" rx="4"/>
      <text x="160" y="145" font-family="monospace" font-size="14" text-anchor="middle">IF Unit</text>

      <rect x="250" y="100" width="120" height="80" fill="#bfdbfe" stroke="#1d4ed8" stroke-width="2" rx="4"/>
      <text x="310" y="145" font-family="monospace" font-size="14" text-anchor="middle">ID Unit</text>

      <rect x="400" y="100" width="120" height="80" fill="#bfdbfe" stroke="#1d4ed8" stroke-width="2" rx="4"/>
      <text x="460" y="145" font-family="monospace" font-size="14" text-anchor="middle">Reg File</text>

      <rect x="550" y="100" width="120" height="80" fill="#bfdbfe" stroke="#1d4ed8" stroke-width="2" rx="4"/>
      <text x="610" y="145" font-family="monospace" font-size="14" text-anchor="middle">ALU</text>

      <rect x="550" y="250" width="120" height="80" fill="#bbf7d0" stroke="#15803d" stroke-width="2" rx="4"/>
      <text x="610" y="295" font-family="monospace" font-size="14" text-anchor="middle">Memory Unit</text>

      <rect x="250" y="250" width="120" height="80" fill="#fecaca" stroke="#b91c1c" stroke-width="2" rx="4"/>
      <text x="310" y="295" font-family="monospace" font-size="14" text-anchor="middle">Control Unit</text>

      <path d="M 220 140 L 250 140" stroke="#000" stroke-width="2"/>
      <path d="M 370 140 L 400 140" stroke="#000" stroke-width="2"/>
      <path d="M 520 140 L 550 140" stroke="#000" stroke-width="2"/>
      <path d="M 610 180 L 610 250" stroke="#000" stroke-width="2"/>

      <!-- Pipeline markers -->
      <line x1="235" y1="80" x2="235" y2="200" stroke="#94a3b8" stroke-dasharray="4"/>
      <line x1="385" y1="80" x2="385" y2="200" stroke="#94a3b8" stroke-dasharray="4"/>
      <line x1="535" y1="80" x2="535" y2="200" stroke="#94a3b8" stroke-dasharray="4"/>
    </svg>